<svg width="201" height="202" viewBox="0 0 201 202" fill="none" xmlns="http://www.w3.org/2000/svg">
<path d="M28.6653 103.189C64.3068 115.227 87.8128 138.763 98.5169 175.623C99.2688 164.762 98.9746 106.486 98.1937 103.189H28.6653ZM197.336 4.55107C191.336 3.89342 185.789 4.8388 180.291 5.80832C176.596 6.4603 173.001 7.69483 169.375 8.7168C160.221 11.2985 151.935 15.7618 144.081 20.9665C137.024 25.6431 131.002 31.5968 125.344 37.873C123.475 39.9473 121.855 42.2648 120.274 44.5759C118.06 47.8125 115.842 51.0632 113.887 54.4586C110.306 60.6795 107.495 67.2817 105.682 74.2176C104.415 79.0608 103.945 84.1088 102.782 88.9846C101.945 92.4906 102.261 95.8958 102.349 99.3237C107.929 99.9389 194.026 99.7737 197.336 99.148V4.55107ZM98.4396 99.4874C99.12 92.2198 98.8698 7.63384 98.1901 4.57373C44.1106 3.01458 1.11315 52.8285 3.08221 99.4874H98.4396ZM102.335 198.894C108.929 199.563 194.168 199.337 197.235 198.677C197.837 191.871 197.308 186.34 195.778 179.052C193.65 168.907 189.691 159.461 184.522 150.588C181.284 145.029 177.503 139.774 173.021 135.013C170.515 132.353 167.835 129.915 165.2 127.42C162.853 125.198 160.423 123.022 157.807 121.133C148.388 114.329 137.945 109.554 126.884 106.115C124.764 105.455 122.524 105.157 120.323 104.791C117.843 104.378 115.276 104.33 112.872 103.667C109.377 102.704 105.957 103.167 102.335 103.219L102.335 198.894ZM101.361 78.7234C106.465 58.3556 116.464 40.9629 131.935 27.1618C151.275 9.90659 174.177 1.09483 200.264 1.14369C200.382 1.26203 200.495 1.35197 200.578 1.46464C200.657 1.57165 200.758 1.70276 200.758 1.82323C200.801 33.854 200.836 65.8855 200.872 97.9169C200.873 99.1784 200.872 100.439 200.872 101.444C199.075 103.332 197.041 103.057 195.08 103.057C174.102 103.059 153.124 103.059 132.146 103.059H128.067C179.972 119.852 201.902 165.365 200.542 201.322C197.361 201.949 5.40552 202.105 0.212489 201.449C0.149812 200.415 0.02627 199.324 0.0259724 198.232C0.0190059 164.498 0.0322012 130.763 0.0175809 97.0283C0.0158942 92.5167 0.788906 88.1278 1.53601 83.6943C2.23471 79.5484 2.88799 75.445 4.23928 71.4388C7.25918 62.4888 11.1947 54.0348 16.4213 46.1208C19.0762 42.1004 22.3027 38.5981 25.1382 34.7824C28.5782 30.1525 33.1081 26.8082 37.2866 23.0848C40.6082 20.1246 44.6095 17.9064 48.3918 15.489C57.597 9.604 67.7596 6.04916 78.3064 3.51346C82.8037 2.4313 87.3514 1.65816 92.0252 1.71275C93.96 1.73468 95.8933 1.10749 97.8393 1.00614C100.774 0.853747 101.256 1.39306 101.356 4.37381C101.385 5.22282 101.361 6.074 101.361 6.92439V78.7234Z" fill="#FAF8F4" fill-opacity="0.16"/>
</svg>
