<svg width="201" height="201" viewBox="0 0 201 201" fill="none" xmlns="http://www.w3.org/2000/svg">
<path d="M102.206 172.207C114.244 136.566 137.78 113.06 174.64 102.356C163.779 101.604 105.503 101.898 102.206 102.679L102.206 172.207ZM3.56816 3.53639C2.91051 9.5369 3.85589 15.0838 4.82541 20.5818C5.4774 24.277 6.71193 27.8714 7.73389 31.4978C10.3156 40.652 14.7789 48.938 19.9836 56.7911C24.6602 63.8489 30.6139 69.8706 36.8901 75.5282C38.9644 77.3976 41.2819 79.0171 43.593 80.5982C46.8296 82.8128 50.0803 85.031 53.4757 86.9856C59.6965 90.5666 66.2987 93.3773 73.2347 95.1908C78.0779 96.4572 83.1259 96.9271 88.0017 98.0908C91.5077 98.9277 94.9129 98.6117 98.3408 98.5231C98.956 92.9436 98.7908 6.8467 98.165 3.53639L3.56816 3.53639ZM98.5045 102.433C91.2368 101.753 6.65093 102.003 3.59082 102.682C2.03167 156.762 51.8456 199.759 98.5045 197.79L98.5045 102.433ZM197.911 98.5373C198.58 91.9436 198.354 6.70491 197.694 3.6377C190.888 3.03601 185.358 3.56475 178.069 5.09409C167.924 7.22301 158.478 11.1811 149.605 16.351C144.046 19.589 138.791 23.3698 134.031 27.8516C131.37 30.3575 128.932 33.0371 126.437 35.6727C124.215 38.0192 122.039 40.45 120.15 43.0651C113.346 52.485 108.572 62.9276 105.132 73.9882C104.472 76.1086 104.174 78.3488 103.808 80.55C103.395 83.0297 103.347 85.5966 102.684 88.0004C101.721 91.4957 102.184 94.9159 102.236 98.5373L197.911 98.5373ZM77.7405 99.5118C57.3727 94.4077 39.98 84.4081 26.1789 68.938C8.92368 49.5971 0.111923 26.6958 0.16078 0.608093C0.279125 0.490448 0.369058 0.377075 0.481733 0.294159C0.588746 0.215469 0.719855 0.114822 0.840318 0.114822C32.8711 0.0716099 64.9025 0.0361336 96.934 0.000718319C98.1955 -0.000715992 99.4563 0.000718349 100.461 0.000718361C102.349 1.79794 102.074 3.8319 102.074 5.79283C102.076 26.7708 102.076 47.7489 102.076 68.7262L102.076 72.806C118.869 20.9007 164.382 -1.02975 200.339 0.330233C200.966 3.51154 201.122 195.467 200.466 200.66C199.432 200.723 198.341 200.846 197.249 200.847C163.515 200.854 129.78 200.84 96.0454 200.855C91.5338 200.857 87.1449 200.084 82.7114 199.337C78.5655 198.638 74.4621 197.985 70.4559 196.633C61.5058 193.613 53.0519 189.678 45.1379 184.451C41.1175 181.796 37.6152 178.57 33.7995 175.734C29.1696 172.294 25.8253 167.764 22.1019 163.586C19.1416 160.264 16.9235 156.263 14.5061 152.481C8.62109 143.276 5.06625 133.113 2.53055 122.566C1.4484 118.069 0.675253 113.521 0.729843 108.847C0.75177 106.913 0.124578 104.979 0.0232277 103.033C-0.129162 100.099 0.410148 99.6166 3.3909 99.5167C4.23991 99.4876 5.09109 99.5117 5.94148 99.5117L77.7405 99.5118Z" fill="#FAF8F4" fill-opacity="0.16"/>
</svg>
