<svg width="157" height="52" viewBox="0 0 157 52" fill="none" xmlns="http://www.w3.org/2000/svg">
<g clip-path="url(#clip0_172_185)">
<path d="M-0.000976562 34.3737V33.1886C-0.000976562 33.1886 20.6727 21.7621 23.867 0.0349121C23.872 0.0411521 28.4851 6.72628 28.1334 16.1042L27.429 19.8121L18.1631 31.0181L2.5179 35.0741L6.34611e-05 34.3721L-0.000976562 34.3737Z" fill="url(#paint0_linear_172_185)"/>
<path d="M-0.000976562 34.3736C12.947 32.2905 23.4204 23.4087 27.9431 11.7017C28.1228 13.1607 28.1858 14.6318 28.1313 16.1009C22.4516 26.1691 12.0893 33.2452 -0.000716507 34.3729L-0.000976562 34.3736Z" fill="#302F0F"/>
<path d="M44.3369 11.3748C44.3369 11.381 42.8331 25.3841 35.1654 32.3568L30.4448 37.8615L15.3518 44.2596L1.4158 39.9275C0.919162 39.3799 0.54031 38.7362 0.302734 38.0362C0.310014 38.0362 28.8651 34.0218 44.3369 11.3748Z" fill="url(#paint1_linear_172_185)"/>
<path d="M23.8671 0.034876C22.7041 -0.098244 21.519 0.149796 20.4317 0.777696L2.82705 10.9411C1.02862 11.9795 -0.000976562 13.7608 -0.000976562 15.8366V33.1885C13.7421 30.3358 24.0704 18.1605 24.0704 3.57192C24.0714 2.38995 24.0035 1.20894 23.8671 0.034876Z" fill="url(#paint2_linear_172_185)"/>
<path d="M23.867 0.034876C22.7041 -0.0982439 21.519 0.149796 20.4317 0.777696L2.82705 10.9411C1.02862 11.9795 -0.000976562 13.7608 -0.000976562 15.8366V24.1441C10.477 22.0062 19.517 14.4095 22.983 3.49365C23.3447 2.3589 23.6399 1.20401 23.867 0.034876Z" fill="#FFF72D"/>
<path d="M32.2848 4.35864C29.6058 20.3861 16.3892 32.845 -0.000943208 34.3736V36.1634C-0.00310237 36.8007 0.0995817 37.434 0.302997 38.038C1.8134 38.1984 3.33124 38.2787 4.85014 38.2785C22.7995 38.2785 38.1455 27.1281 44.3371 11.3753C44.13 11.2169 43.9128 11.0721 43.6871 10.9416L32.2861 4.35916L32.2848 4.35864Z" fill="url(#paint3_linear_172_185)"/>
<path d="M32.2848 4.35864C29.6058 20.3861 16.3892 32.845 -0.000976547 34.3736V36.1634C-0.000998642 36.473 0.0226436 36.7822 0.0697435 37.0882C0.267864 37.0709 0.46659 37.0517 0.665924 37.0308C18.3844 35.2178 32.7554 23.6761 39.0204 8.24876L32.2838 4.3589L32.2848 4.35864Z" fill="#FFF72D"/>
<path d="M46.513 19.9659C38.9517 32.4053 25.2723 40.7139 9.65281 40.7139C6.88841 40.7149 4.13024 40.4514 1.41602 39.9271C1.82444 40.3755 2.30055 40.7572 2.82704 41.0584L20.4306 51.2218C22.2277 52.2589 24.2851 52.2589 26.0822 51.2218L43.6858 41.0584C45.4831 40.0199 46.513 38.2387 46.513 36.1631V19.9651V19.9659Z" fill="url(#paint4_linear_172_185)"/>
<path d="M40.4472 24.9209C33.0289 33.7406 22.1227 39.5914 9.70768 40.2656C6.93934 40.4179 4.16278 40.3047 1.41602 39.9276C4.13025 40.4519 6.88841 40.7154 9.65282 40.7144C19.2003 40.7144 28.0224 37.61 35.1656 32.3567C37.4185 30.3066 39.14 27.6507 40.4472 24.9207V24.9209Z" fill="#302F0F"/>
<path d="M12.9928 45.6559C26.5307 45.6559 38.6108 39.4141 46.513 29.6526V19.9658C43.5751 24.7967 39.7202 29.006 35.1656 32.3564C28.0223 37.6084 19.2016 40.7141 9.65281 40.7141C6.88841 40.7151 4.13024 40.4516 1.41602 39.9273C1.82444 40.3757 2.30055 40.7574 2.82704 41.0586L10.6827 45.5948C11.4486 45.635 12.2187 45.6554 12.9928 45.6559Z" fill="#FFF72D"/>
</g>
<path d="M58.6894 11.6713C59.2461 11.3256 59.8939 11.1555 60.5486 11.1834C61.2779 11.1495 61.9961 11.3717 62.5789 11.8115C63.119 12.2548 63.5016 12.8607 63.6698 13.5389L65.2149 13.1239C64.947 12.1076 64.3362 11.215 63.4859 10.5972C62.6356 9.97938 61.598 9.67431 60.5486 9.73358C59.6071 9.7045 58.6767 9.9427 57.865 10.4206C57.1291 10.8834 56.5443 11.5511 56.1824 12.3415C55.7748 13.2389 55.5745 14.2165 55.5963 15.2019C55.5747 16.1863 55.7751 17.1629 56.1824 18.0594C56.5443 18.8498 57.1291 19.5175 57.865 19.9803C58.6764 20.4592 59.6069 20.6984 60.5486 20.6701C61.5977 20.7278 62.6345 20.4221 63.4845 19.8045C64.3345 19.187 64.9456 18.2953 65.2149 17.2798L63.6698 16.862C63.4994 17.5385 63.1172 18.1428 62.5789 18.5866C61.9964 19.0272 61.2783 19.2503 60.5486 19.2175C59.8916 19.2409 59.2428 19.066 58.6866 18.7156C58.1808 18.371 57.79 17.8826 57.5649 17.3134C57.3005 16.6437 57.1746 15.9273 57.1948 15.2075C57.1803 14.4867 57.308 13.7701 57.5705 13.0987C57.7911 12.521 58.1811 12.0235 58.6894 11.6713Z" fill="black"/>
<path d="M73.8636 15.4603C74.2988 14.8247 74.5225 14.0682 74.503 13.2982C74.5139 12.7668 74.4185 12.2387 74.2225 11.7447C74.0348 11.2886 73.7313 10.8894 73.342 10.5865C72.9153 10.2631 72.4118 10.0562 71.881 9.98639C71.7389 9.96297 71.5957 9.94706 71.4519 9.93872H71.0706H66.8193V20.4378H68.3336V16.6661H71.1379L72.9578 20.4378H74.7021L72.7167 16.366C73.177 16.1788 73.5747 15.8647 73.8636 15.4603ZM68.3336 11.3745H70.9949C71.0902 11.3745 71.1996 11.3745 71.3173 11.3745C71.4322 11.382 71.546 11.4017 71.6567 11.4334C71.9411 11.492 72.2023 11.6323 72.4082 11.8372C72.5978 12.0327 72.739 12.2699 72.8204 12.5298C72.901 12.778 72.9426 13.0372 72.9438 13.2982C72.9426 13.561 72.901 13.822 72.8204 14.0722C72.7386 14.328 72.5984 14.5613 72.411 14.7536C72.2051 14.9585 71.9439 15.0988 71.6595 15.1574C71.5479 15.1835 71.4344 15.2003 71.3201 15.2079C71.2024 15.2079 71.093 15.2247 70.9977 15.2247H68.3336V11.3745Z" fill="black"/>
<path d="M76.3057 20.4372H83.0134V18.9986H77.8284V15.7541H82.1385V14.3183H77.8284V11.3739H83.0134V9.9353H76.3057V20.4372Z" fill="black"/>
<path d="M87.4471 9.93872L84.0371 20.4378H85.6187L86.3871 18.0682H90.6972L91.4712 20.4378H93.0527L89.6456 9.93872H87.4471ZM86.8414 16.6381L88.5239 11.4642L90.2205 16.6437L86.8414 16.6381Z" fill="black"/>
<path d="M92.6152 11.3739H96.1065V20.4372H97.632V11.3739H101.123V9.9353H92.6152V11.3739Z" fill="black"/>
<path d="M103.958 9.93872H102.436V20.4378H103.958V9.93872Z" fill="black"/>
<path d="M109.69 18.8977L106.782 9.9353H105.197L108.61 20.4372H110.806L114.219 9.9353H112.634L109.69 18.8977Z" fill="black"/>
<path d="M115.313 20.4372H122.021V18.9986H116.836V15.7541H121.146V14.3183H116.836V11.3739H122.021V9.9353H115.313V20.4372Z" fill="black"/>
<path d="M125.439 9.93872H123.916V20.4378H125.439V9.93872Z" fill="black"/>
<path d="M126.752 11.3739H130.243V20.4372H131.769V11.3739H135.26V9.9353H126.752V11.3739Z" fill="black"/>
<path d="M136.426 20.4372H143.134V18.9986H137.948V15.7541H142.259V14.3183H137.948V11.3739H143.134V9.9353H136.426V20.4372Z" fill="black"/>
<path d="M153.852 9.9353L150.069 17.832L146.261 9.9353H144.884V20.4372H146.32V13.2471L149.718 20.4372H150.411L153.801 13.2471V20.4288H155.243V9.9353H153.852Z" fill="black"/>
<path d="M60.16 27.019L55.5947 41.9601H58.4999L59.445 38.8473H65.0703L66.0321 41.9601H68.9261L64.372 27.019H60.16ZM60.247 36.2142L62.2352 29.6634L64.257 36.2142H60.247Z" fill="black"/>
<path d="M74.4309 29.9968C75.1405 29.5558 75.9655 29.3362 76.8004 29.3659C77.6894 29.3031 78.5721 29.5558 79.2932 30.0795C80.0143 30.6031 80.5277 31.3642 80.7432 32.229L83.5867 31.441C83.157 30.0547 82.294 28.8428 81.1246 27.9834C79.958 27.1327 78.5166 26.7074 76.8004 26.7074C75.4472 26.6715 74.1101 27.0091 72.9362 27.6833C71.856 28.3308 70.9878 29.279 70.4376 30.4118C69.8295 31.6834 69.5288 33.0801 69.5599 34.4892C69.5282 35.8984 69.8289 37.2953 70.4376 38.5666C70.9878 39.7002 71.8559 40.6492 72.9362 41.2979C74.1109 41.9699 75.4476 42.3065 76.8004 42.271C78.5166 42.271 79.958 41.8457 81.1246 40.9951C82.2949 40.1364 83.1581 38.9242 83.5867 37.5374L80.7432 36.7494C80.5248 37.6125 80.0106 38.3717 79.2902 38.8948C78.5698 39.4179 77.6888 39.6719 76.8004 39.6126C75.9649 39.6433 75.1395 39.4225 74.4309 38.9788C73.7854 38.5426 73.2876 37.9207 73.0035 37.1953C72.3679 35.4463 72.3679 33.5294 73.0035 31.7803C73.2888 31.0556 73.7863 30.434 74.4309 29.9968Z" fill="black"/>
<path d="M88.9823 27.019L84.417 41.9601H87.3222L88.27 38.8473H93.8841L94.846 41.9601H97.7484L93.1971 27.019H88.9823ZM89.0692 36.2142L91.0602 29.6634L93.0821 36.2142H89.0692Z" fill="black"/>
<path d="M109.307 28.359C108.431 27.6509 107.366 27.2143 106.245 27.1027C105.906 27.0606 105.552 27.0382 105.188 27.0298H104.462H99.6299V41.9708H104.464H105.191C105.555 41.9708 105.909 41.9399 106.248 41.8979C107.37 41.7801 108.434 41.3366 109.307 40.622C110.153 39.9164 110.809 39.0101 111.214 37.986C112.086 35.7361 112.086 33.242 111.214 30.9922C110.809 29.9688 110.153 29.0635 109.307 28.359ZM108.584 36.5642C108.408 37.1981 108.097 37.7865 107.672 38.2888C107.261 38.7651 106.699 39.0866 106.08 39.2002C105.795 39.2513 105.508 39.2813 105.219 39.2899C104.899 39.2899 104.658 39.304 104.462 39.304H102.499V29.6854H104.462H105.219C105.508 29.6901 105.796 29.7221 106.08 29.7807C106.686 29.8916 107.237 30.2015 107.647 30.6613C108.078 31.1538 108.395 31.7349 108.575 32.3635C108.781 33.0532 108.884 33.7694 108.881 34.4891C108.884 35.1914 108.785 35.8904 108.587 36.5642H108.584Z" fill="black"/>
<path d="M114.36 41.9601H124.114V39.3269H117.184V35.4879H122.868V32.8519H117.184V29.655H124.114V27.019H114.36V41.9601Z" fill="black"/>
<path d="M134.075 36.9377L129.137 27.019H126.604V41.9601H129.24V33.0369L133.579 41.9601H134.574L138.912 33.0369V41.9601H141.545V27.019H139.016L134.075 36.9377Z" fill="black"/>
<path d="M152.774 27.019L149.535 32.6444L146.299 27.019H142.998L148.105 35.8805V41.9601H150.968V35.8805L156.071 27.019H152.774Z" fill="black"/>
<defs>
<linearGradient id="paint0_linear_172_185" x1="12.1005" y1="30.3923" x2="35.8055" y2="-26.7482" gradientUnits="userSpaceOnUse">
<stop stop-color="#FFB800"/>
<stop offset="1" stop-color="#F8FB57"/>
</linearGradient>
<linearGradient id="paint1_linear_172_185" x1="19.2303" y1="39.8656" x2="33.9643" y2="-19.3234" gradientUnits="userSpaceOnUse">
<stop stop-color="#FFB800"/>
<stop offset="1" stop-color="#F8FB57"/>
</linearGradient>
<linearGradient id="paint2_linear_172_185" x1="6.18131" y1="32.3505" x2="15.2722" y2="-0.214209" gradientUnits="userSpaceOnUse">
<stop stop-color="#FFC42D"/>
<stop offset="1" stop-color="#FFFD2D"/>
</linearGradient>
<linearGradient id="paint3_linear_172_185" x1="11.3864" y1="37.4221" x2="16.8134" y2="2.38657" gradientUnits="userSpaceOnUse">
<stop stop-color="#FFC42D"/>
<stop offset="1" stop-color="#FFFD2D"/>
</linearGradient>
<linearGradient id="paint4_linear_172_185" x1="12.9983" y1="51.1908" x2="17.7728" y2="17.9954" gradientUnits="userSpaceOnUse">
<stop stop-color="#FFC42D"/>
<stop offset="1" stop-color="#FFFD2D"/>
</linearGradient>
<clipPath id="clip0_172_185">
<rect width="46.513" height="52" fill="white"/>
</clipPath>
</defs>
</svg>
