<svg width="157" height="52" viewBox="0 0 157 52" fill="none" xmlns="http://www.w3.org/2000/svg">
<g clip-path="url(#clip0_172_225)">
<path d="M-0.000976562 34.3735V33.1885C-0.000976562 33.1885 20.6727 21.762 23.867 0.03479C23.872 0.04103 28.4851 6.72616 28.1334 16.1041L27.429 19.812L18.1631 31.018L2.5179 35.074L6.34611e-05 34.372L-0.000976562 34.3735Z" fill="url(#paint0_linear_172_225)"/>
<path d="M-0.000976562 34.3735C12.947 32.2904 23.4204 23.4086 27.9431 11.7015C28.1228 13.1606 28.1858 14.6317 28.1313 16.1007C22.4516 26.169 12.0893 33.2451 -0.000716507 34.3727L-0.000976562 34.3735Z" fill="#302F0F"/>
<path d="M44.3369 11.3748C44.3369 11.381 42.8331 25.3841 35.1654 32.3568L30.4448 37.8615L15.3518 44.2596L1.4158 39.9275C0.919162 39.3799 0.54031 38.7362 0.302734 38.0362C0.310014 38.0362 28.8651 34.0218 44.3369 11.3748Z" fill="url(#paint1_linear_172_225)"/>
<path d="M23.8671 0.034876C22.7041 -0.098244 21.519 0.149796 20.4317 0.777696L2.82705 10.9411C1.02862 11.9795 -0.000976562 13.7608 -0.000976562 15.8366V33.1885C13.7421 30.3358 24.0704 18.1605 24.0704 3.57192C24.0714 2.38995 24.0035 1.20894 23.8671 0.034876Z" fill="url(#paint2_linear_172_225)"/>
<path d="M23.867 0.034876C22.7041 -0.0982439 21.519 0.149796 20.4317 0.777696L2.82705 10.9411C1.02862 11.9795 -0.000976562 13.7608 -0.000976562 15.8366V24.1441C10.477 22.0062 19.517 14.4095 22.983 3.49365C23.3447 2.3589 23.6399 1.20401 23.867 0.034876Z" fill="#FFF72D"/>
<path d="M32.2848 4.35864C29.6058 20.3861 16.3892 32.845 -0.000943208 34.3736V36.1634C-0.00310237 36.8007 0.0995817 37.434 0.302997 38.038C1.8134 38.1984 3.33124 38.2787 4.85014 38.2785C22.7995 38.2785 38.1455 27.1281 44.3371 11.3753C44.13 11.2169 43.9128 11.0721 43.6871 10.9416L32.2861 4.35916L32.2848 4.35864Z" fill="url(#paint3_linear_172_225)"/>
<path d="M32.2848 4.35864C29.6058 20.3861 16.3892 32.845 -0.000976547 34.3736V36.1634C-0.000998642 36.473 0.0226436 36.7822 0.0697435 37.0882C0.267864 37.0709 0.46659 37.0517 0.665924 37.0308C18.3844 35.2178 32.7554 23.6761 39.0204 8.24876L32.2838 4.3589L32.2848 4.35864Z" fill="#FFF72D"/>
<path d="M46.513 19.9659C38.9517 32.4053 25.2723 40.7139 9.65281 40.7139C6.88841 40.7149 4.13024 40.4514 1.41602 39.9271C1.82444 40.3755 2.30055 40.7572 2.82704 41.0584L20.4306 51.2218C22.2277 52.2589 24.2851 52.2589 26.0822 51.2218L43.6858 41.0584C45.4831 40.0199 46.513 38.2387 46.513 36.1631V19.9651V19.9659Z" fill="url(#paint4_linear_172_225)"/>
<path d="M40.4472 24.921C33.0289 33.7408 22.1227 39.5915 9.70768 40.2657C6.93934 40.418 4.16278 40.3048 1.41602 39.9277C4.13025 40.452 6.88841 40.7155 9.65282 40.7145C19.2003 40.7145 28.0224 37.6101 35.1656 32.3568C37.4185 30.3067 39.14 27.6508 40.4472 24.9208V24.921Z" fill="#302F0F"/>
<path d="M12.9928 45.656C26.5307 45.656 38.6108 39.4142 46.513 29.6528V19.9659C43.5751 24.7969 39.7202 29.0062 35.1656 32.3565C28.0223 37.6085 19.2016 40.7142 9.65281 40.7142C6.88841 40.7152 4.13024 40.4518 1.41602 39.9274C1.82444 40.3759 2.30055 40.7576 2.82704 41.0587L10.6827 45.5949C11.4486 45.6351 12.2187 45.6555 12.9928 45.656Z" fill="#FFF72D"/>
</g>
<path d="M58.6894 11.6714C59.2461 11.3257 59.8939 11.1557 60.5486 11.1835C61.2779 11.1496 61.9961 11.3718 62.5789 11.8116C63.119 12.255 63.5016 12.8608 63.6698 13.5391L65.2149 13.124C64.947 12.1077 64.3362 11.2151 63.4859 10.5973C62.6356 9.9795 61.598 9.67443 60.5486 9.7337C59.6071 9.70462 58.6767 9.94283 57.865 10.4207C57.1291 10.8836 56.5443 11.5512 56.1824 12.3416C55.7748 13.239 55.5745 14.2166 55.5963 15.202C55.5747 16.1864 55.7751 17.1631 56.1824 18.0595C56.5443 18.85 57.1291 19.5176 57.865 19.9804C58.6764 20.4593 59.6069 20.6985 60.5486 20.6702C61.5977 20.7279 62.6345 20.4222 63.4845 19.8047C64.3345 19.1871 64.9456 18.2954 65.2149 17.2799L63.6698 16.8621C63.4994 17.5386 63.1172 18.1429 62.5789 18.5867C61.9964 19.0273 61.2783 19.2505 60.5486 19.2176C59.8916 19.241 59.2428 19.0661 58.6866 18.7157C58.1808 18.3712 57.79 17.8827 57.5649 17.3136C57.3005 16.6438 57.1746 15.9274 57.1948 15.2076C57.1803 14.4868 57.308 13.7702 57.5705 13.0988C57.7911 12.5211 58.1811 12.0236 58.6894 11.6714Z" fill="white"/>
<path d="M73.8636 15.4604C74.2988 14.8249 74.5225 14.0683 74.503 13.2983C74.5139 12.767 74.4185 12.2388 74.2225 11.7448C74.0348 11.2887 73.7313 10.8895 73.342 10.5866C72.9153 10.2632 72.4118 10.0564 71.881 9.98651C71.7389 9.96309 71.5957 9.94718 71.4519 9.93884H71.0706H66.8193V20.4379H68.3336V16.6662H71.1379L72.9578 20.4379H74.7021L72.7167 16.3662C73.177 16.1789 73.5747 15.8648 73.8636 15.4604ZM68.3336 11.3746H70.9949C71.0902 11.3746 71.1996 11.3746 71.3173 11.3746C71.4322 11.3821 71.546 11.4019 71.6567 11.4335C71.9411 11.4921 72.2023 11.6324 72.4082 11.8373C72.5978 12.0328 72.739 12.2701 72.8204 12.53C72.901 12.7782 72.9426 13.0374 72.9438 13.2983C72.9426 13.5611 72.901 13.8222 72.8204 14.0723C72.7386 14.3281 72.5984 14.5614 72.411 14.7537C72.2051 14.9586 71.9439 15.099 71.6595 15.1575C71.5479 15.1836 71.4344 15.2005 71.3201 15.208C71.2024 15.208 71.093 15.2248 70.9977 15.2248H68.3336V11.3746Z" fill="white"/>
<path d="M76.3057 20.4373H83.0134V18.9987H77.8284V15.7542H82.1385V14.3185H77.8284V11.374H83.0134V9.93542H76.3057V20.4373Z" fill="white"/>
<path d="M87.4471 9.93884L84.0371 20.4379H85.6187L86.3871 18.0683H90.6972L91.4712 20.4379H93.0527L89.6456 9.93884H87.4471ZM86.8414 16.6382L88.5239 11.4644L90.2205 16.6438L86.8414 16.6382Z" fill="white"/>
<path d="M92.6152 11.374H96.1065V20.4373H97.632V11.374H101.123V9.93542H92.6152V11.374Z" fill="white"/>
<path d="M103.958 9.93884H102.436V20.4379H103.958V9.93884Z" fill="white"/>
<path d="M109.69 18.8978L106.782 9.93542H105.197L108.61 20.4373H110.806L114.219 9.93542H112.634L109.69 18.8978Z" fill="white"/>
<path d="M115.313 20.4373H122.021V18.9987H116.836V15.7542H121.146V14.3185H116.836V11.374H122.021V9.93542H115.313V20.4373Z" fill="white"/>
<path d="M125.439 9.93884H123.916V20.4379H125.439V9.93884Z" fill="white"/>
<path d="M126.752 11.374H130.243V20.4373H131.769V11.374H135.26V9.93542H126.752V11.374Z" fill="white"/>
<path d="M136.426 20.4373H143.134V18.9987H137.948V15.7542H142.259V14.3185H137.948V11.374H143.134V9.93542H136.426V20.4373Z" fill="white"/>
<path d="M153.852 9.93542L150.069 17.8322L146.261 9.93542H144.884V20.4373H146.32V13.2472L149.718 20.4373H150.411L153.801 13.2472V20.4289H155.243V9.93542H153.852Z" fill="white"/>
<path d="M60.16 27.019L55.5947 41.9601H58.4999L59.445 38.8473H65.0703L66.0321 41.9601H68.9261L64.372 27.019H60.16ZM60.247 36.2142L62.2352 29.6634L64.257 36.2142H60.247Z" fill="white"/>
<path d="M74.4309 29.9969C75.1405 29.5559 75.9655 29.3363 76.8004 29.366C77.6894 29.3033 78.5721 29.5559 79.2932 30.0796C80.0143 30.6032 80.5277 31.3644 80.7432 32.2291L83.5867 31.4411C83.157 30.0549 82.294 28.843 81.1246 27.9835C79.958 27.1329 78.5166 26.7076 76.8004 26.7076C75.4472 26.6716 74.1101 27.0093 72.9362 27.6834C71.856 28.331 70.9878 29.2791 70.4376 30.412C69.8295 31.6835 69.5288 33.0802 69.5599 34.4893C69.5282 35.8985 69.8289 37.2954 70.4376 38.5667C70.9878 39.7003 71.8559 40.6494 72.9362 41.298C74.1109 41.97 75.4476 42.3066 76.8004 42.2711C78.5166 42.2711 79.958 41.8458 81.1246 40.9952C82.2949 40.1365 83.1581 38.9243 83.5867 37.5375L80.7432 36.7495C80.5248 37.6126 80.0106 38.3718 79.2902 38.8949C78.5698 39.4181 77.6888 39.672 76.8004 39.6127C75.9649 39.6434 75.1395 39.4226 74.4309 38.9789C73.7854 38.5428 73.2876 37.9208 73.0035 37.1954C72.3679 35.4464 72.3679 33.5295 73.0035 31.7804C73.2888 31.0558 73.7863 30.4341 74.4309 29.9969Z" fill="white"/>
<path d="M88.9823 27.019L84.417 41.9601H87.3222L88.27 38.8473H93.8841L94.846 41.9601H97.7484L93.1971 27.019H88.9823ZM89.0692 36.2142L91.0602 29.6634L93.0821 36.2142H89.0692Z" fill="white"/>
<path d="M109.307 28.3591C108.431 27.6511 107.366 27.2144 106.245 27.1028C105.906 27.0608 105.552 27.0383 105.188 27.0299H104.462H99.6299V41.9709H104.464H105.191C105.555 41.9709 105.909 41.9401 106.248 41.898C107.37 41.7802 108.434 41.3367 109.307 40.6221C110.153 39.9165 110.809 39.0102 111.214 37.9861C112.086 35.7362 112.086 33.2422 111.214 30.9923C110.809 29.9689 110.153 29.0636 109.307 28.3591ZM108.584 36.5643C108.408 37.1982 108.097 37.7866 107.672 38.2889C107.261 38.7652 106.699 39.0867 106.08 39.2003C105.795 39.2514 105.508 39.2814 105.219 39.2901C104.899 39.2901 104.658 39.3041 104.462 39.3041H102.499V29.6855H104.462H105.219C105.508 29.6903 105.796 29.7222 106.08 29.7809C106.686 29.8918 107.237 30.2016 107.647 30.6614C108.078 31.1539 108.395 31.735 108.575 32.3636C108.781 33.0533 108.884 33.7695 108.881 34.4892C108.884 35.1915 108.785 35.8905 108.587 36.5643H108.584Z" fill="white"/>
<path d="M114.36 41.9601H124.114V39.3269H117.184V35.4879H122.868V32.8519H117.184V29.655H124.114V27.019H114.36V41.9601Z" fill="white"/>
<path d="M134.075 36.9377L129.137 27.019H126.604V41.9601H129.24V33.0369L133.579 41.9601H134.574L138.912 33.0369V41.9601H141.545V27.019H139.016L134.075 36.9377Z" fill="white"/>
<path d="M152.774 27.019L149.535 32.6444L146.299 27.019H142.998L148.105 35.8805V41.9601H150.968V35.8805L156.071 27.019H152.774Z" fill="white"/>
<defs>
<linearGradient id="paint0_linear_172_225" x1="12.1005" y1="30.3922" x2="35.8055" y2="-26.7483" gradientUnits="userSpaceOnUse">
<stop stop-color="#FFB800"/>
<stop offset="1" stop-color="#F8FB57"/>
</linearGradient>
<linearGradient id="paint1_linear_172_225" x1="19.2303" y1="39.8656" x2="33.9643" y2="-19.3234" gradientUnits="userSpaceOnUse">
<stop stop-color="#FFB800"/>
<stop offset="1" stop-color="#F8FB57"/>
</linearGradient>
<linearGradient id="paint2_linear_172_225" x1="6.18131" y1="32.3505" x2="15.2722" y2="-0.214209" gradientUnits="userSpaceOnUse">
<stop stop-color="#FFC42D"/>
<stop offset="1" stop-color="#FFFD2D"/>
</linearGradient>
<linearGradient id="paint3_linear_172_225" x1="11.3864" y1="37.4221" x2="16.8134" y2="2.38657" gradientUnits="userSpaceOnUse">
<stop stop-color="#FFC42D"/>
<stop offset="1" stop-color="#FFFD2D"/>
</linearGradient>
<linearGradient id="paint4_linear_172_225" x1="12.9983" y1="51.1908" x2="17.7728" y2="17.9954" gradientUnits="userSpaceOnUse">
<stop stop-color="#FFC42D"/>
<stop offset="1" stop-color="#FFFD2D"/>
</linearGradient>
<clipPath id="clip0_172_225">
<rect width="46.513" height="52" fill="white"/>
</clipPath>
</defs>
</svg>
