<svg width="47" height="52" viewBox="0 0 47 52" fill="none" xmlns="http://www.w3.org/2000/svg">
<g clip-path="url(#clip0_312_733)">
<path d="M-0.000976562 34.3737V33.1886C-0.000976562 33.1886 20.6727 21.7621 23.867 0.0349121C23.872 0.0411521 28.4851 6.72628 28.1334 16.1042L27.429 19.8121L18.1631 31.0181L2.5179 35.0741L6.34611e-05 34.3721L-0.000976562 34.3737Z" fill="url(#paint0_linear_312_733)"/>
<path d="M-0.000976562 34.3736C12.947 32.2905 23.4204 23.4087 27.9431 11.7017C28.1228 13.1607 28.1858 14.6318 28.1313 16.1009C22.4516 26.1691 12.0893 33.2452 -0.000716507 34.3729L-0.000976562 34.3736Z" fill="#302F0F"/>
<path d="M44.3372 11.3748C44.3372 11.381 42.8333 25.3841 35.1656 32.3568L30.4451 37.8615L15.3521 44.2596L1.41604 39.9275C0.919406 39.3799 0.540554 38.7362 0.302979 38.0362C0.310259 38.0362 28.8653 34.0218 44.3372 11.3748Z" fill="url(#paint1_linear_312_733)"/>
<path d="M23.8668 0.034876C22.7038 -0.098244 21.5187 0.149796 20.4314 0.777696L2.8268 10.9411C1.02838 11.9795 -0.0012207 13.7608 -0.0012207 15.8366V33.1885C13.7419 30.3358 24.0701 18.1605 24.0701 3.57192C24.0711 2.38995 24.0033 1.20894 23.8668 0.034876Z" fill="url(#paint2_linear_312_733)"/>
<path d="M23.8668 0.034876C22.7038 -0.0982439 21.5187 0.149796 20.4314 0.777696L2.8268 10.9411C1.02838 11.9795 -0.0012207 13.7608 -0.0012207 15.8366V24.1441C10.4768 22.0062 19.5167 14.4095 22.9828 3.49365C23.3445 2.3589 23.6396 1.20401 23.8668 0.034876Z" fill="#FFF72D"/>
<path d="M32.2848 4.35864C29.6058 20.3861 16.3892 32.845 -0.000943208 34.3736V36.1634C-0.00310237 36.8007 0.0995817 37.434 0.302997 38.038C1.8134 38.1984 3.33124 38.2787 4.85014 38.2785C22.7995 38.2785 38.1455 27.1281 44.3371 11.3753C44.13 11.2169 43.9128 11.0721 43.6871 10.9416L32.2861 4.35916L32.2848 4.35864Z" fill="url(#paint3_linear_312_733)"/>
<path d="M32.2848 4.35864C29.6058 20.3861 16.3892 32.845 -0.000976547 34.3736V36.1634C-0.000998642 36.473 0.0226436 36.7822 0.0697435 37.0882C0.267864 37.0709 0.46659 37.0517 0.665924 37.0308C18.3844 35.2178 32.7554 23.6761 39.0204 8.24876L32.2838 4.3589L32.2848 4.35864Z" fill="#FFF72D"/>
<path d="M46.513 19.9659C38.9517 32.4053 25.2723 40.7139 9.65281 40.7139C6.88841 40.7149 4.13024 40.4514 1.41602 39.9271C1.82444 40.3755 2.30055 40.7572 2.82704 41.0584L20.4306 51.2218C22.2277 52.2589 24.2851 52.2589 26.0822 51.2218L43.6858 41.0584C45.4831 40.0199 46.513 38.2387 46.513 36.1631V19.9651V19.9659Z" fill="url(#paint4_linear_312_733)"/>
<path d="M40.4472 24.9209C33.0289 33.7406 22.1227 39.5914 9.70768 40.2656C6.93934 40.4179 4.16278 40.3047 1.41602 39.9276C4.13025 40.4519 6.88841 40.7154 9.65282 40.7144C19.2003 40.7144 28.0224 37.61 35.1656 32.3567C37.4185 30.3066 39.14 27.6507 40.4472 24.9207V24.9209Z" fill="#302F0F"/>
<path d="M12.9928 45.6559C26.5307 45.6559 38.6108 39.4141 46.513 29.6526V19.9658C43.5751 24.7967 39.7202 29.006 35.1656 32.3564C28.0223 37.6084 19.2016 40.7141 9.65281 40.7141C6.88841 40.7151 4.13024 40.4516 1.41602 39.9273C1.82444 40.3757 2.30055 40.7574 2.82704 41.0586L10.6827 45.5948C11.4486 45.635 12.2187 45.6554 12.9928 45.6559Z" fill="#FFF72D"/>
</g>
<defs>
<linearGradient id="paint0_linear_312_733" x1="12.1005" y1="30.3923" x2="35.8055" y2="-26.7482" gradientUnits="userSpaceOnUse">
<stop stop-color="#FFB800"/>
<stop offset="1" stop-color="#F8FB57"/>
</linearGradient>
<linearGradient id="paint1_linear_312_733" x1="19.2305" y1="39.8656" x2="33.9645" y2="-19.3234" gradientUnits="userSpaceOnUse">
<stop stop-color="#FFB800"/>
<stop offset="1" stop-color="#F8FB57"/>
</linearGradient>
<linearGradient id="paint2_linear_312_733" x1="6.18107" y1="32.3505" x2="15.272" y2="-0.214209" gradientUnits="userSpaceOnUse">
<stop stop-color="#FFC42D"/>
<stop offset="1" stop-color="#FFFD2D"/>
</linearGradient>
<linearGradient id="paint3_linear_312_733" x1="11.3864" y1="37.4221" x2="16.8134" y2="2.38657" gradientUnits="userSpaceOnUse">
<stop stop-color="#FFC42D"/>
<stop offset="1" stop-color="#FFFD2D"/>
</linearGradient>
<linearGradient id="paint4_linear_312_733" x1="12.9983" y1="51.1908" x2="17.7728" y2="17.9954" gradientUnits="userSpaceOnUse">
<stop stop-color="#FFC42D"/>
<stop offset="1" stop-color="#FFFD2D"/>
</linearGradient>
<clipPath id="clip0_312_733">
<rect width="46.513" height="52" fill="white"/>
</clipPath>
</defs>
</svg>
