<svg width="20" height="20" viewBox="0 0 20 20" fill="none" xmlns="http://www.w3.org/2000/svg">
<path d="M7.84753 12.4811L14.1973 6.28863C14.3946 6.09621 14.6457 6 14.9507 6C15.2556 6 15.5067 6.09621 15.704 6.28863C15.9013 6.48105 16 6.72595 16 7.02332C16 7.3207 15.9013 7.5656 15.704 7.75802L8.6009 14.6851C8.38565 14.895 8.13453 15 7.84753 15C7.56054 15 7.30942 14.895 7.09417 14.6851L4.29596 11.9563C4.09865 11.7638 4 11.5189 4 11.2216C4 10.9242 4.09865 10.6793 4.29596 10.4869C4.49327 10.2945 4.74439 10.1983 5.04933 10.1983C5.35426 10.1983 5.60538 10.2945 5.80269 10.4869L7.84753 12.4811Z" fill="#1A1C1F"/>
</svg>
