<svg width="20" height="20" viewBox="0 0 20 20" fill="none" xmlns="http://www.w3.org/2000/svg">
<path d="M17.7084 7.62507C15.7834 4.60007 12.9667 2.8584 10.0001 2.8584C8.51675 2.8584 7.07508 3.29173 5.75841 4.10007C4.44175 4.91673 3.25841 6.1084 2.29175 7.62507C1.45841 8.93344 1.45841 11.0584 2.29175 12.3668C4.21675 15.4001 7.03341 17.1334 10.0001 17.1334C11.4834 17.1334 12.9251 16.7001 14.2417 15.8918C15.5584 15.0751 16.7417 13.8834 17.7084 12.3668C18.5417 11.0668 18.5417 8.93344 17.7084 7.62507ZM10.0001 13.3668C8.13341 13.3668 6.63341 11.8584 6.63341 10.0001C6.63341 8.14173 8.13341 6.6334 10.0001 6.6334C11.8667 6.6334 13.3667 8.14173 13.3667 10.0001C13.3667 11.8584 11.8667 13.3668 10.0001 13.3668Z" fill="#7C7F84"/>
<path d="M9.99875 7.6167C8.69041 7.6167 7.62378 8.68336 7.62378 10C7.62378 11.3084 8.69041 12.375 9.99875 12.375C11.3071 12.375 12.3821 11.3084 12.3821 10C12.3821 8.69169 11.3071 7.6167 9.99875 7.6167Z" fill="#7C7F84"/>
</svg>
