<svg width="20" height="20" viewBox="0 0 20 20" fill="none" xmlns="http://www.w3.org/2000/svg">
<path d="M17.7228 7.65004C17.4812 7.26671 17.2228 6.90838 16.9562 6.57504C16.6478 6.18338 16.0645 6.15004 15.7145 6.50004L13.2145 9.00008C13.3978 9.55008 13.4312 10.1834 13.2645 10.8418C12.9728 12.0168 12.0228 12.9667 10.8478 13.2584C10.1895 13.4251 9.55617 13.3917 9.00617 13.2084C9.00617 13.2084 7.81451 14.4001 6.95617 15.2584C6.53951 15.6751 6.67284 16.4084 7.23117 16.6251C8.12284 16.9667 9.04783 17.1418 9.99783 17.1418C11.4812 17.1418 12.9228 16.7084 14.2395 15.9001C15.5812 15.0667 16.7895 13.8417 17.7645 12.2833C18.5562 11.025 18.5145 8.90842 17.7228 7.65004Z" fill="#7C7F84"/>
<path d="M11.6838 8.3167L8.31719 11.6834C7.89219 11.25 7.61719 10.65 7.61719 10C7.61719 8.69169 8.68384 7.6167 10.0005 7.6167C10.6505 7.6167 11.2505 7.8917 11.6838 8.3167Z" fill="#7C7F84"/>
<path d="M15.2084 4.79173L12.3834 7.61673C11.7751 7.00007 10.9334 6.6334 10.0001 6.6334C8.13342 6.6334 6.63341 8.14173 6.63341 10.0001C6.63341 10.9334 7.00842 11.7751 7.61675 12.3834L4.80008 15.2084H4.79175C3.86675 14.4584 3.01675 13.5001 2.29175 12.3668C1.45841 11.0584 1.45841 8.93344 2.29175 7.62507C3.25841 6.1084 4.44175 4.91673 5.75841 4.10007C7.07508 3.30007 8.51675 2.8584 10.0001 2.8584C11.8584 2.8584 13.6584 3.54173 15.2084 4.79173Z" fill="#7C7F84"/>
<path d="M12.3817 9.99994C12.3817 11.3083 11.315 12.3833 9.99836 12.3833C9.94836 12.3833 9.90669 12.3833 9.85669 12.3666L12.365 9.85828C12.3817 9.90828 12.3817 9.94994 12.3817 9.99994Z" fill="#7C7F84"/>
<path d="M18.1439 1.85828C17.8939 1.60828 17.4856 1.60828 17.2356 1.85828L1.8606 17.2416C1.6106 17.4916 1.6106 17.8999 1.8606 18.1499C1.9856 18.2666 2.14393 18.3333 2.3106 18.3333C2.47726 18.3333 2.6356 18.2666 2.7606 18.1416L18.1439 2.75828C18.4023 2.50828 18.4023 2.10828 18.1439 1.85828Z" fill="#7C7F84"/>
</svg>
