<svg width="36" height="36" viewBox="0 0 36 36" fill="none" xmlns="http://www.w3.org/2000/svg">
<path d="M16.1253 3.67492C17.1603 2.78992 18.8553 2.78992 19.9053 3.67492L22.2753 5.71508C22.7253 6.10508 23.5653 6.42004 24.1653 6.42004H26.7153C28.3053 6.42004 29.6103 7.72493 29.6103 9.31493V11.865C29.6103 12.45 29.9253 13.3051 30.3153 13.7551L32.3553 16.125C33.2403 17.16 33.2403 18.855 32.3553 19.905L30.3153 22.275C29.9253 22.725 29.6103 23.565 29.6103 24.165V26.7151C29.6103 28.3051 28.3053 29.61 26.7153 29.61H24.1653C23.5803 29.61 22.7253 29.9249 22.2753 30.3149L19.9053 32.3549C18.8703 33.2399 17.1753 33.2399 16.1253 32.3549L13.7553 30.3149C13.3053 29.9249 12.4653 29.61 11.8653 29.61H9.2703C7.6803 29.61 6.37531 28.3051 6.37531 26.7151V24.15C6.37531 23.565 6.06032 22.725 5.68532 22.275L3.66031 19.89C2.79031 18.855 2.79031 17.175 3.66031 16.14L5.68532 13.7551C6.06032 13.3051 6.37531 12.4651 6.37531 11.8801V9.31493C6.37531 7.72493 7.6803 6.42004 9.2703 6.42004H11.8653C12.4503 6.42004 13.3053 6.10508 13.7553 5.71508L16.1253 3.67492Z" stroke="#1A1C1F" stroke-width="2.25" stroke-linecap="round" stroke-linejoin="round"/>
<path d="M14.8347 22.23L17.0097 23.91C17.2947 24.195 17.9247 24.33 18.3447 24.33H20.9997C21.8397 24.33 22.7547 23.7 22.9647 22.86L24.6447 17.73C24.9897 16.755 24.3597 15.9 23.3097 15.9H20.5047C20.0847 15.9 19.7397 15.5551 19.7997 15.0601L20.1447 12.8101C20.2797 12.1801 19.8597 11.4751 19.2297 11.2651C18.6747 11.0551 17.9697 11.34 17.6847 11.76L14.8047 16.035" stroke="#1A1C1F" stroke-width="2.25" stroke-miterlimit="10"/>
<path d="M11.25 22.2299V15.36C11.25 14.37 11.67 14.025 12.66 14.025H13.365C14.34 14.025 14.775 14.37 14.775 15.36V22.2299C14.775 23.2049 14.355 23.5649 13.365 23.5649H12.66C11.67 23.5649 11.25 23.2199 11.25 22.2299Z" stroke="#1A1C1F" stroke-width="2.25" stroke-linecap="round" stroke-linejoin="round"/>
</svg>
