<svg width="20" height="20" viewBox="0 0 20 20" fill="none" xmlns="http://www.w3.org/2000/svg">
<path d="M18.333 4.99996V7.01662C18.333 8.33329 17.4997 9.16663 16.183 9.16663H13.333V3.34162C13.333 2.41662 14.0913 1.66663 15.0163 1.66663C15.9247 1.67496 16.758 2.04162 17.358 2.64162C17.958 3.24996 18.333 4.08329 18.333 4.99996Z" stroke="#1A1C1F" stroke-width="1.25" stroke-miterlimit="10" stroke-linecap="round" stroke-linejoin="round"/>
<path d="M1.66699 5.83329V17.5C1.66699 18.1916 2.45032 18.5833 3.00032 18.1666L4.42533 17.1C4.75866 16.85 5.22533 16.8833 5.52533 17.1833L6.90866 18.575C7.23366 18.9 7.76699 18.9 8.09199 18.575L9.49199 17.175C9.78366 16.8833 10.2503 16.85 10.5753 17.1L12.0003 18.1666C12.5503 18.575 13.3337 18.1833 13.3337 17.5V3.33329C13.3337 2.41663 14.0837 1.66663 15.0003 1.66663H5.83366H5.00033C2.50033 1.66663 1.66699 3.15829 1.66699 4.99996V5.83329Z" stroke="#1A1C1F" stroke-width="1.25" stroke-miterlimit="10" stroke-linecap="round" stroke-linejoin="round"/>
<path d="M5.22461 11.4417L9.77461 6.89172" stroke="#1A1C1F" stroke-width="1.25" stroke-linecap="round" stroke-linejoin="round"/>
<path d="M9.93748 11.25H9.94497" stroke="#1A1C1F" stroke-width="1.66667" stroke-linecap="round" stroke-linejoin="round"/>
<path d="M5.16209 7.08329H5.16957" stroke="#1A1C1F" stroke-width="1.66667" stroke-linecap="round" stroke-linejoin="round"/>
</svg>
