<svg width="17" height="16" viewBox="0 0 17 16" fill="none" xmlns="http://www.w3.org/2000/svg">
<path d="M12.3474 9.5465C12.2622 9.62901 12.1982 9.73095 12.1611 9.84357C12.1239 9.9562 12.1146 10.0762 12.134 10.1932L12.7274 13.4732C12.7518 13.6093 12.7365 13.7496 12.6833 13.8773C12.6301 14.005 12.5412 14.1147 12.4274 14.1932C12.3156 14.2747 12.1831 14.323 12.0451 14.3325C11.907 14.3419 11.7692 14.3121 11.6474 14.2465L8.69402 12.7065C8.59109 12.6523 8.477 12.6226 8.36068 12.6198H8.18068C8.11762 12.6291 8.05668 12.6494 8.00068 12.6798L5.04735 14.2265C4.90068 14.2998 4.73602 14.3265 4.57402 14.2998C4.38434 14.2638 4.21621 14.1551 4.1054 13.997C3.9946 13.8389 3.94985 13.6438 3.98068 13.4532L4.57402 10.1732C4.59344 10.0551 4.5842 9.93418 4.54707 9.82047C4.50994 9.70677 4.44601 9.60366 4.36068 9.51984L1.95402 7.1865C1.85534 7.09114 1.78598 6.96957 1.75409 6.8361C1.7222 6.70264 1.72911 6.56284 1.77402 6.43317C1.86402 6.16917 2.09202 5.9765 2.36735 5.93317L5.68068 5.45317C5.93268 5.4265 6.15402 5.27317 6.26735 5.0465L7.72735 2.05317C7.76135 1.9865 7.80602 1.92517 7.86068 1.87317L7.92068 1.8265C7.95156 1.79229 7.98754 1.76306 8.02735 1.73984L8.10068 1.71317L8.21402 1.6665H8.49402C8.74535 1.69317 8.96602 1.8425 9.08068 2.0665L10.5607 5.0465C10.6674 5.2645 10.874 5.41584 11.114 5.45317L14.4274 5.93317C14.7074 5.97317 14.9407 6.1665 15.034 6.43317C15.1207 6.7005 15.0454 6.99384 14.8407 7.1865L12.3474 9.5465Z" fill="#F9D216"/>
</svg>
