<svg width="20" height="20" viewBox="0 0 20 20" fill="none" xmlns="http://www.w3.org/2000/svg">
<path d="M14.9342 11.9332C14.8277 12.0363 14.7478 12.1637 14.7013 12.3045C14.6549 12.4453 14.6433 12.5952 14.6675 12.7415L15.4092 16.8415C15.4397 17.0117 15.4206 17.1871 15.3541 17.3467C15.2876 17.5063 15.1765 17.6434 15.0342 17.7415C14.8945 17.8434 14.7288 17.9038 14.5563 17.9156C14.3838 17.9274 14.2114 17.8901 14.0592 17.8082L10.3675 15.8832C10.2389 15.8154 10.0962 15.7783 9.95085 15.7748H9.72585C9.64702 15.7864 9.57085 15.8118 9.50085 15.8498L5.80919 17.7832C5.62585 17.8748 5.42002 17.9082 5.21752 17.8748C4.98042 17.8297 4.77026 17.6939 4.63175 17.4963C4.49325 17.2986 4.43731 17.0547 4.47585 16.8165L5.21752 12.7165C5.2418 12.569 5.23025 12.4178 5.18384 12.2756C5.13743 12.1335 5.05752 12.0046 4.95085 11.8998L1.94252 8.98316C1.81918 8.86396 1.73247 8.71199 1.69261 8.54516C1.65275 8.37833 1.66139 8.20358 1.71752 8.04149C1.83002 7.71149 2.11502 7.47066 2.45919 7.41649L6.60085 6.81649C6.91585 6.78316 7.19252 6.59149 7.33419 6.30816L9.15919 2.56649C9.20169 2.48316 9.25752 2.40649 9.32585 2.34149L9.40085 2.28316C9.43945 2.2404 9.48443 2.20385 9.53419 2.17483L9.62585 2.14149L9.76752 2.08316H10.1175C10.4317 2.11649 10.7075 2.30316 10.8509 2.58316L12.7009 6.30816C12.8342 6.58066 13.0925 6.76983 13.3925 6.81649L17.5342 7.41649C17.8842 7.46649 18.1759 7.70816 18.2925 8.04149C18.4009 8.37566 18.3067 8.74233 18.0509 8.98316L14.9342 11.9332Z" fill="#F9D216"/>
</svg>
