<svg width="25" height="24" viewBox="0 0 25 24" fill="none" xmlns="http://www.w3.org/2000/svg">
<path d="M18.1197 14.3198C17.9919 14.4435 17.896 14.5964 17.8402 14.7654C17.7845 14.9343 17.7706 15.1143 17.7997 15.2898L18.6897 20.2098C18.7263 20.414 18.7034 20.6244 18.6236 20.816C18.5438 21.0075 18.4105 21.172 18.2397 21.2898C18.072 21.4121 17.8732 21.4845 17.6662 21.4987C17.4592 21.5128 17.2524 21.4681 17.0697 21.3698L12.6397 19.0598C12.4853 18.9784 12.3141 18.9339 12.1397 18.9298H11.8697C11.7751 18.9436 11.6837 18.9741 11.5997 19.0198L7.16966 21.3398C6.94966 21.4498 6.70266 21.4898 6.45966 21.4498C6.17514 21.3957 5.92295 21.2327 5.75674 20.9955C5.59053 20.7583 5.52341 20.4657 5.56966 20.1798L6.45966 15.2598C6.48879 15.0827 6.47493 14.9013 6.41924 14.7307C6.36354 14.5602 6.26765 14.4055 6.13966 14.2798L2.52966 10.7798C2.38165 10.6367 2.2776 10.4544 2.22976 10.2542C2.18193 10.054 2.1923 9.84426 2.25966 9.64976C2.39466 9.25376 2.73666 8.96476 3.14966 8.89976L8.11966 8.17976C8.49766 8.13976 8.82966 7.90976 8.99966 7.56976L11.1897 3.07976C11.2407 2.97976 11.3077 2.88776 11.3897 2.80976L11.4797 2.73976C11.526 2.68844 11.5799 2.64459 11.6397 2.60976L11.7497 2.56976L11.9197 2.49976H12.3397C12.7167 2.53976 13.0477 2.76376 13.2197 3.09976L15.4397 7.56976C15.5997 7.89676 15.9097 8.12376 16.2697 8.17976L21.2397 8.89976C21.6597 8.95976 22.0097 9.24976 22.1497 9.64976C22.2797 10.0508 22.1667 10.4908 21.8597 10.7798L18.1197 14.3198Z" fill="#F9D216"/>
</svg>
