<svg width="20" height="20" viewBox="0 0 20 20" fill="none" xmlns="http://www.w3.org/2000/svg">
<path d="M8.37502 2.10836L3.35835 5.38336C1.75002 6.43336 1.75002 8.78336 3.35835 9.83336L8.37502 13.1084C9.27502 13.7 10.7583 13.7 11.6583 13.1084L16.65 9.83336C18.25 8.78336 18.25 6.4417 16.65 5.3917L11.6583 2.1167C10.7583 1.5167 9.27502 1.5167 8.37502 2.10836Z" stroke="#1A1C1F" stroke-width="1.25" stroke-linecap="round" stroke-linejoin="round"/>
<path d="M4.69168 10.9L4.68335 14.8084C4.68335 15.8667 5.50002 17 6.50002 17.3334L9.15835 18.2167C9.61668 18.3667 10.375 18.3667 10.8417 18.2167L13.5 17.3334C14.5 17 15.3167 15.8667 15.3167 14.8084V10.9417" stroke="#1A1C1F" stroke-width="1.25" stroke-linecap="round" stroke-linejoin="round"/>
<path d="M17.8333 12.5V7.5" stroke="#1A1C1F" stroke-width="1.25" stroke-linecap="round" stroke-linejoin="round"/>
</svg>
