<svg width="21" height="20" viewBox="0 0 21 20" fill="none" xmlns="http://www.w3.org/2000/svg">
<path d="M18.3663 7.14999V12.85C18.3663 13.7833 17.8663 14.65 17.0579 15.125L12.1079 17.9833C11.2996 18.45 10.2996 18.45 9.48294 17.9833L4.53294 15.125C3.72461 14.6583 3.22461 13.7916 3.22461 12.85V7.14999C3.22461 6.21665 3.72461 5.34995 4.53294 4.87495L9.48294 2.01663C10.2913 1.54996 11.2913 1.54996 12.1079 2.01663L17.0579 4.87495C17.8663 5.34995 18.3663 6.20832 18.3663 7.14999Z" stroke="#1A1C1F" stroke-width="1.25" stroke-linecap="round" stroke-linejoin="round"/>
<path d="M10.8001 9.16664C11.8724 9.16664 12.7417 8.29731 12.7417 7.22496C12.7417 6.1526 11.8724 5.28333 10.8001 5.28333C9.72771 5.28333 8.8584 6.1526 8.8584 7.22496C8.8584 8.29731 9.72771 9.16664 10.8001 9.16664Z" stroke="#1A1C1F" stroke-width="1.25" stroke-linecap="round" stroke-linejoin="round"/>
<path d="M14.1335 13.8833C14.1335 12.3833 12.6418 11.1666 10.8001 11.1666C8.95846 11.1666 7.4668 12.3833 7.4668 13.8833" stroke="#1A1C1F" stroke-width="1.25" stroke-linecap="round" stroke-linejoin="round"/>
</svg>
